<svg width="42" height="42" viewBox="0 0 42 42" fill="none" xmlns="http://www.w3.org/2000/svg">
<circle cx="21" cy="21" r="20.5" fill="white" stroke="#D9D9D9"/>
<path d="M20.9795 25C20.8317 25 20.6963 24.9748 20.5731 24.9244C20.45 24.874 20.3391 24.7858 20.2406 24.6598L13.2217 17.4783C13.0739 17.3271 13 17.1255 13 16.8735C13 16.6216 13.0739 16.42 13.2217 16.2688C13.4187 16.0672 13.6219 15.979 13.8312 16.0042C14.0405 16.0294 14.2314 16.1176 14.4038 16.2688L20.9795 22.9967L27.5552 16.2688C27.7029 16.1176 27.8999 16.0357 28.1462 16.0231C28.3925 16.0105 28.5895 16.0924 28.7373 16.2688C28.9343 16.4452 29.0205 16.6531 28.9959 16.8924C28.9713 17.1318 28.8851 17.3397 28.7373 17.5161L21.7183 24.6598C21.6198 24.7858 21.509 24.874 21.3858 24.9244C21.2627 24.9748 21.1272 25 20.9795 25Z" fill="black"/>
</svg>
