<svg width="42" height="42" viewBox="0 0 42 42" fill="none" xmlns="http://www.w3.org/2000/svg">
<circle cx="21" cy="21" r="20.5" fill="white" stroke="#D9D9D9"/>
<path d="M21.0205 16C21.1683 16 21.3037 16.0252 21.4269 16.0756C21.55 16.126 21.6609 16.2142 21.7594 16.3402L28.7783 23.5217C28.9261 23.6729 29 23.8745 29 24.1265C29 24.3784 28.9261 24.58 28.7783 24.7312C28.5813 24.9328 28.3781 25.021 28.1688 24.9958C27.9595 24.9706 27.7686 24.8824 27.5962 24.7312L21.0205 18.0033L14.4448 24.7312C14.2971 24.8824 14.1001 24.9643 13.8538 24.9769C13.6075 24.9895 13.4105 24.9076 13.2627 24.7312C13.0657 24.5548 12.9795 24.3469 13.0041 24.1076C13.0287 23.8682 13.1149 23.6603 13.2627 23.4839L20.2817 16.3402C20.3802 16.2142 20.491 16.126 20.6142 16.0756C20.7373 16.0252 20.8728 16 21.0205 16Z" fill="black"/>
</svg>
